<svg width="240" height="240" viewBox="0 0 240 240" xmlns="http://www.w3.org/2000/svg">
  <defs>
    <radialGradient id="g" cx="50%" cy="50%" r="60%">
      <stop offset="0%" stop-color="#00AA88" stop-opacity="0.25"/>
      <stop offset="80%" stop-color="#00AA88" stop-opacity="0"/>
    </radialGradient>
    <filter id="glow" x="-50%" y="-50%" width="200%" height="200%">
      <feGaussianBlur stdDeviation="4" result="blur"/>
      <feMerge>
        <feMergeNode in="blur"/>
        <feMergeNode in="SourceGraphic"/>
      </feMerge>
    </filter>
  </defs>

  <!-- Background pulse -->
  <circle cx="120" cy="120" r="0" fill="url(#g)">
    <animate attributeName="r" values="0;110;0" dur="3s" repeatCount="indefinite"/>
    <animate attributeName="opacity" values="0.8;0;0.8" dur="3s" repeatCount="indefinite"/>
  </circle>

  <!-- Card -->
  <rect x="30" y="30" width="180" height="180" rx="20" fill="#0B0F14" stroke="#00AA88" stroke-width="2" filter="url(#glow)"/>

  <!-- Corner finders (QR look) -->
  <g fill="none" stroke="#00F5B8" stroke-width="10" stroke-linecap="round">
    <path d="M50 70 h40 M50 70 v40"/>
    <path d="M150 70 h40 M190 70 v40"/>
    <path d="M50 150 v40 M50 190 h40"/>
    <path d="M150 190 h40 M190 150 v40"/>
  </g>

  <!-- Moving scan line -->
  <rect x="45" y="65" width="150" height="6" fill="#00F5B8" opacity="0.85">
    <animate attributeName="y" values="65;170;65" dur="2.6s" repeatCount="indefinite"/>
  </rect>

  <!-- Center stylized QR blocks -->
  <g fill="#DFFEF6">
    <rect x="90" y="100" width="16" height="16" rx="2"/>
    <rect x="112" y="100" width="16" height="16" rx="2"/>
    <rect x="134" y="100" width="16" height="16" rx="2"/>

    <rect x="90" y="122" width="16" height="16" rx="2"/>
    <rect x="112" y="122" width="16" height="16" rx="2"/>
    <rect x="134" y="122" width="16" height="16" rx="2"/>

    <rect x="90" y="144" width="16" height="16" rx="2"/>
    <rect x="112" y="144" width="16" height="16" rx="2"/>
    <rect x="134" y="144" width="16" height="16" rx="2"/>
  </g>

  <!-- Subtle rotate wiggle -->
  <g>
    <animateTransform attributeName="transform" attributeType="XML" type="rotate"
      values="-1 120 120; 1 120 120; -1 120 120" dur="5s" repeatCount="indefinite"/>
  </g>
</svg>
